<?xml version="1.0" standalone="no"?>
<!DOCTYPE svg PUBLIC "-//W3C//DTD SVG 20010904//EN"
 "http://www.w3.org/TR/2001/REC-SVG-20010904/DTD/svg10.dtd">
<svg version="1.0" xmlns="http://www.w3.org/2000/svg"
 width="85.000000pt" height="85.000000pt" viewBox="0 0 85.000000 85.000000"
 preserveAspectRatio="xMidYMid meet">

<g transform="translate(0.000000,85.000000) scale(0.100000,-0.100000)"
fill="#000000" stroke="none">
<path d="M500 827 c-60 -31 -103 -93 -104 -149 -1 -38 2 -43 23 -46 82 -12
180 94 169 184 -4 38 -31 42 -88 11z m50 -32 c0 -22 -33 -76 -59 -98 -29 -24
-61 -36 -61 -22 0 22 33 76 59 98 29 24 61 36 61 22z"/>
<path d="M250 621 c-14 -4 -39 -15 -55 -24 -139 -72 -155 -301 -34 -485 67
-102 126 -130 206 -97 44 19 110 19 143 0 51 -29 110 -14 162 42 35 37 98 142
98 164 0 9 -15 26 -34 37 -37 22 -63 61 -66 102 -6 64 1 83 40 122 22 22 40
43 40 47 0 11 -62 67 -89 81 -35 18 -118 16 -175 -4 -44 -15 -53 -15 -95 -2
-63 21 -111 26 -141 17z m136 -59 c48 -14 56 -14 105 3 72 24 130 22 174 -5
l35 -22 -29 -34 c-67 -75 -62 -183 12 -257 l40 -40 -19 -36 c-27 -52 -107
-131 -131 -131 -11 0 -37 7 -56 15 -48 20 -108 19 -167 -2 -45 -16 -48 -16
-81 3 -76 44 -149 200 -149 317 1 102 45 174 127 202 40 14 55 13 139 -13z"/>
</g>
</svg>
